<svg width="134" height="10" viewBox="0 0 134 10" fill="none" xmlns="http://www.w3.org/2000/svg">
<path d="M20 3C20 3.55228 19.5523 4 19 4C18.4477 4 18 3.55228 18 3C18 2.44772 18.4477 2 19 2C19.5523 2 20 2.44772 20 3Z" fill="white"/>
<path d="M46 3C46 3.55228 45.5523 4 45 4C44.4477 4 44 3.55228 44 3C44 2.44772 44.4477 2 45 2C45.5523 2 46 2.44772 46 3Z" fill="white"/>
<path d="M24 3C24 3.55228 23.5523 4 23 4C22.4477 4 22 3.55228 22 3C22 2.44772 22.4477 2 23 2C23.5523 2 24 2.44772 24 3Z" fill="white"/>
<path d="M30 3C30 3.55228 29.5523 4 29 4C28.4477 4 28 3.55228 28 3C28 2.44772 28.4477 2 29 2C29.5523 2 30 2.44772 30 3Z" fill="white"/>
<path d="M24 1C24 1.55228 23.5523 2 23 2C22.4477 2 22 1.55228 22 1C22 0.447715 22.4477 0 23 0C23.5523 0 24 0.447715 24 1Z" fill="white"/>
<path d="M30 1C30 1.55228 29.5523 2 29 2C28.4477 2 28 1.55228 28 1C28 0.447715 28.4477 0 29 0C29.5523 0 30 0.447715 30 1Z" fill="white"/>
<path d="M26 3C26 3.55228 25.5523 4 25 4C24.4477 4 24 3.55228 24 3C24 2.44772 24.4477 2 25 2C25.5523 2 26 2.44772 26 3Z" fill="white"/>
<path d="M28 5C28 5.55228 27.5523 6 27 6C26.4477 6 26 5.55228 26 5C26 4.44772 26.4477 4 27 4C27.5523 4 28 4.44772 28 5Z" fill="white"/>
<path d="M18 1C18 1.55228 17.5523 2 17 2C16.4477 2 16 1.55228 16 1C16 0.447715 16.4477 0 17 0C17.5523 0 18 0.447715 18 1Z" fill="white"/>
<path d="M44 1C44 1.55228 43.5523 2 43 2C42.4477 2 42 1.55228 42 1C42 0.447715 42.4477 0 43 0C43.5523 0 44 0.447715 44 1Z" fill="white"/>
<path d="M6 3C6 3.55228 5.55228 4 5 4C4.44771 4 4 3.55228 4 3C4 2.44772 4.44771 2 5 2C5.55228 2 6 2.44772 6 3Z" fill="white"/>
<path d="M6 5C6 5.55228 5.55228 6 5 6C4.44771 6 4 5.55228 4 5C4 4.44772 4.44771 4 5 4C5.55228 4 6 4.44772 6 5Z" fill="white"/>
<path d="M2 3C2 3.55228 1.55228 4 1 4C0.447715 4 0 3.55228 0 3C0 2.44772 0.447715 2 1 2C1.55228 2 2 2.44772 2 3Z" fill="white"/>
<path d="M4 1C4 1.55228 3.55228 2 3 2C2.44771 2 2 1.55228 2 1C2 0.447715 2.44771 0 3 0C3.55228 0 4 0.447715 4 1Z" fill="white"/>
<path d="M6 1C6 1.55228 5.55228 2 5 2C4.44771 2 4 1.55228 4 1C4 0.447715 4.44771 0 5 0C5.55228 0 6 0.447715 6 1Z" fill="white"/>
<path d="M10 3C10 3.55228 9.55228 4 9 4C8.44771 4 8 3.55228 8 3C8 2.44772 8.44771 2 9 2C9.55228 2 10 2.44772 10 3Z" fill="white"/>
<path d="M8 1C8 1.55228 7.55228 2 7 2C6.44771 2 6 1.55228 6 1C6 0.447715 6.44771 0 7 0C7.55228 0 8 0.447715 8 1Z" fill="white"/>
<path d="M16 1C16 1.55228 15.5523 2 15 2C14.4477 2 14 1.55228 14 1C14 0.447715 14.4477 0 15 0C15.5523 0 16 0.447715 16 1Z" fill="white"/>
<path d="M42 1C42 1.55228 41.5523 2 41 2C40.4477 2 40 1.55228 40 1C40 0.447715 40.4477 0 41 0C41.5523 0 42 0.447715 42 1Z" fill="white"/>
<path d="M2 5C2 5.55228 1.55228 6 1 6C0.447715 6 0 5.55228 0 5C0 4.44772 0.447715 4 1 4C1.55228 4 2 4.44772 2 5Z" fill="white"/>
<path d="M10 5C10 5.55228 9.55228 6 9 6C8.44771 6 8 5.55228 8 5C8 4.44772 8.44771 4 9 4C9.55228 4 10 4.44772 10 5Z" fill="white"/>
<path d="M14 5C14 5.55228 13.5523 6 13 6C12.4477 6 12 5.55228 12 5C12 4.44772 12.4477 4 13 4C13.5523 4 14 4.44772 14 5Z" fill="white"/>
<path d="M40 5C40 5.55228 39.5523 6 39 6C38.4477 6 38 5.55228 38 5C38 4.44772 38.4477 4 39 4C39.5523 4 40 4.44772 40 5Z" fill="white"/>
<path d="M50 5C50 5.55228 49.5523 6 49 6C48.4477 6 48 5.55228 48 5C48 4.44772 48.4477 4 49 4C49.5523 4 50 4.44772 50 5Z" fill="white"/>
<path d="M60 5C60 5.55228 59.5523 6 59 6C58.4477 6 58 5.55228 58 5C58 4.44772 58.4477 4 59 4C59.5523 4 60 4.44772 60 5Z" fill="white"/>
<path d="M16 5C16 5.55228 15.5523 6 15 6C14.4477 6 14 5.55228 14 5C14 4.44772 14.4477 4 15 4C15.5523 4 16 4.44772 16 5Z" fill="white"/>
<path d="M42 5C42 5.55228 41.5523 6 41 6C40.4477 6 40 5.55228 40 5C40 4.44772 40.4477 4 41 4C41.5523 4 42 4.44772 42 5Z" fill="white"/>
<path d="M18 5C18 5.55228 17.5523 6 17 6C16.4477 6 16 5.55228 16 5C16 4.44772 16.4477 4 17 4C17.5523 4 18 4.44772 18 5Z" fill="white"/>
<path d="M44 5C44 5.55228 43.5523 6 43 6C42.4477 6 42 5.55228 42 5C42 4.44772 42.4477 4 43 4C43.5523 4 44 4.44772 44 5Z" fill="white"/>
<path d="M20 5C20 5.55228 19.5523 6 19 6C18.4477 6 18 5.55228 18 5C18 4.44772 18.4477 4 19 4C19.5523 4 20 4.44772 20 5Z" fill="white"/>
<path d="M46 5C46 5.55228 45.5523 6 45 6C44.4477 6 44 5.55228 44 5C44 4.44772 44.4477 4 45 4C45.5523 4 46 4.44772 46 5Z" fill="white"/>
<path d="M24 5C24 5.55228 23.5523 6 23 6C22.4477 6 22 5.55228 22 5C22 4.44772 22.4477 4 23 4C23.5523 4 24 4.44772 24 5Z" fill="white"/>
<path d="M30 5C30 5.55228 29.5523 6 29 6C28.4477 6 28 5.55228 28 5C28 4.44772 28.4477 4 29 4C29.5523 4 30 4.44772 30 5Z" fill="white"/>
<path d="M14 3C14 3.55228 13.5523 4 13 4C12.4477 4 12 3.55228 12 3C12 2.44772 12.4477 2 13 2C13.5523 2 14 2.44772 14 3Z" fill="white"/>
<path d="M40 3C40 3.55228 39.5523 4 39 4C38.4477 4 38 3.55228 38 3C38 2.44772 38.4477 2 39 2C39.5523 2 40 2.44772 40 3Z" fill="white"/>
<path d="M50 3C50 3.55228 49.5523 4 49 4C48.4477 4 48 3.55228 48 3C48 2.44772 48.4477 2 49 2C49.5523 2 50 2.44772 50 3Z" fill="white"/>
<path d="M60 3C60 3.55228 59.5523 4 59 4C58.4477 4 58 3.55228 58 3C58 2.44772 58.4477 2 59 2C59.5523 2 60 2.44772 60 3Z" fill="white"/>
<path d="M52 1C52 1.55228 51.5523 2 51 2C50.4477 2 50 1.55228 50 1C50 0.447715 50.4477 0 51 0C51.5523 0 52 0.447715 52 1Z" fill="white"/>
<path d="M62 1C62 1.55228 61.5523 2 61 2C60.4477 2 60 1.55228 60 1C60 0.447715 60.4477 0 61 0C61.5523 0 62 0.447715 62 1Z" fill="white"/>
<path d="M60 1C60 1.55228 59.5523 2 59 2C58.4477 2 58 1.55228 58 1C58 0.447715 58.4477 0 59 0C59.5523 0 60 0.447715 60 1Z" fill="white"/>
<path d="M54 1C54 1.55228 53.5523 2 53 2C52.4477 2 52 1.55228 52 1C52 0.447715 52.4477 0 53 0C53.5523 0 54 0.447715 54 1Z" fill="white"/>
<path d="M64 1C64 1.55228 63.5523 2 63 2C62.4477 2 62 1.55228 62 1C62 0.447715 62.4477 0 63 0C63.5523 0 64 0.447715 64 1Z" fill="white"/>
<path d="M56 1C56 1.55228 55.5523 2 55 2C54.4477 2 54 1.55228 54 1C54 0.447715 54.4477 0 55 0C55.5523 0 56 0.447715 56 1Z" fill="white"/>
<path d="M66 1C66 1.55228 65.5523 2 65 2C64.4477 2 64 1.55228 64 1C64 0.447715 64.4477 0 65 0C65.5523 0 66 0.447715 66 1Z" fill="white"/>
<path d="M2 7C2 7.55228 1.55228 8 1 8C0.447715 8 0 7.55228 0 7C0 6.44772 0.447715 6 1 6C1.55228 6 2 6.44772 2 7Z" fill="white"/>
<path d="M10 7C10 7.55228 9.55228 8 9 8C8.44771 8 8 7.55228 8 7C8 6.44772 8.44771 6 9 6C9.55228 6 10 6.44772 10 7Z" fill="white"/>
<path d="M14 7C14 7.55228 13.5523 8 13 8C12.4477 8 12 7.55228 12 7C12 6.44772 12.4477 6 13 6C13.5523 6 14 6.44772 14 7Z" fill="white"/>
<path d="M40 7C40 7.55228 39.5523 8 39 8C38.4477 8 38 7.55228 38 7C38 6.44772 38.4477 6 39 6C39.5523 6 40 6.44772 40 7Z" fill="white"/>
<path d="M50 7C50 7.55228 49.5523 8 49 8C48.4477 8 48 7.55228 48 7C48 6.44772 48.4477 6 49 6C49.5523 6 50 6.44772 50 7Z" fill="white"/>
<path d="M60 7C60 7.55228 59.5523 8 59 8C58.4477 8 58 7.55228 58 7C58 6.44772 58.4477 6 59 6C59.5523 6 60 6.44772 60 7Z" fill="white"/>
<path d="M20 7C20 7.55228 19.5523 8 19 8C18.4477 8 18 7.55228 18 7C18 6.44772 18.4477 6 19 6C19.5523 6 20 6.44772 20 7Z" fill="white"/>
<path d="M46 7C46 7.55228 45.5523 8 45 8C44.4477 8 44 7.55228 44 7C44 6.44772 44.4477 6 45 6C45.5523 6 46 6.44772 46 7Z" fill="white"/>
<path d="M24 7C24 7.55228 23.5523 8 23 8C22.4477 8 22 7.55228 22 7C22 6.44772 22.4477 6 23 6C23.5523 6 24 6.44772 24 7Z" fill="white"/>
<path d="M30 7C30 7.55228 29.5523 8 29 8C28.4477 8 28 7.55228 28 7C28 6.44772 28.4477 6 29 6C29.5523 6 30 6.44772 30 7Z" fill="white"/>
<path d="M2 9C2 9.55228 1.55228 10 1 10C0.447715 10 0 9.55228 0 9C0 8.44771 0.447715 8 1 8C1.55228 8 2 8.44771 2 9Z" fill="white"/>
<path d="M10 9C10 9.55228 9.55228 10 9 10C8.44771 10 8 9.55228 8 9C8 8.44771 8.44771 8 9 8C9.55228 8 10 8.44771 10 9Z" fill="white"/>
<path d="M14 9C14 9.55228 13.5523 10 13 10C12.4477 10 12 9.55228 12 9C12 8.44771 12.4477 8 13 8C13.5523 8 14 8.44771 14 9Z" fill="white"/>
<path d="M40 9C40 9.55228 39.5523 10 39 10C38.4477 10 38 9.55228 38 9C38 8.44771 38.4477 8 39 8C39.5523 8 40 8.44771 40 9Z" fill="white"/>
<path d="M52 9C52 9.55228 51.5523 10 51 10C50.4477 10 50 9.55228 50 9C50 8.44771 50.4477 8 51 8C51.5523 8 52 8.44771 52 9Z" fill="white"/>
<path d="M62 9C62 9.55228 61.5523 10 61 10C60.4477 10 60 9.55228 60 9C60 8.44771 60.4477 8 61 8C61.5523 8 62 8.44771 62 9Z" fill="white"/>
<path d="M60 9C60 9.55228 59.5523 10 59 10C58.4477 10 58 9.55228 58 9C58 8.44771 58.4477 8 59 8C59.5523 8 60 8.44771 60 9Z" fill="white"/>
<path d="M54 9C54 9.55228 53.5523 10 53 10C52.4477 10 52 9.55228 52 9C52 8.44771 52.4477 8 53 8C53.5523 8 54 8.44771 54 9Z" fill="white"/>
<path d="M64 9C64 9.55228 63.5523 10 63 10C62.4477 10 62 9.55228 62 9C62 8.44771 62.4477 8 63 8C63.5523 8 64 8.44771 64 9Z" fill="white"/>
<path d="M56 9C56 9.55228 55.5523 10 55 10C54.4477 10 54 9.55228 54 9C54 8.44771 54.4477 8 55 8C55.5523 8 56 8.44771 56 9Z" fill="white"/>
<path d="M66 9C66 9.55228 65.5523 10 65 10C64.4477 10 64 9.55228 64 9C64 8.44771 64.4477 8 65 8C65.5523 8 66 8.44771 66 9Z" fill="white"/>
<path d="M56 7C56 7.55228 55.5523 8 55 8C54.4477 8 54 7.55228 54 7C54 6.44772 54.4477 6 55 6C55.5523 6 56 6.44772 56 7Z" fill="white"/>
<path d="M56 5C56 5.55228 55.5523 6 55 6C54.4477 6 54 5.55228 54 5C54 4.44772 54.4477 4 55 4C55.5523 4 56 4.44772 56 5Z" fill="white"/>
<path d="M54 5C54 5.55228 53.5523 6 53 6C52.4477 6 52 5.55228 52 5C52 4.44772 52.4477 4 53 4C53.5523 4 54 4.44772 54 5Z" fill="white"/>
<path d="M64 5C64 5.55228 63.5523 6 63 6C62.4477 6 62 5.55228 62 5C62 4.44772 62.4477 4 63 4C63.5523 4 64 4.44772 64 5Z" fill="white"/>
<path d="M62 5C62 5.55228 61.5523 6 61 6C60.4477 6 60 5.55228 60 5C60 4.44772 60.4477 4 61 4C61.5523 4 62 4.44772 62 5Z" fill="white"/>
<path d="M20 9C20 9.55228 19.5523 10 19 10C18.4477 10 18 9.55228 18 9C18 8.44771 18.4477 8 19 8C19.5523 8 20 8.44771 20 9Z" fill="white"/>
<path d="M46 9C46 9.55228 45.5523 10 45 10C44.4477 10 44 9.55228 44 9C44 8.44771 44.4477 8 45 8C45.5523 8 46 8.44771 46 9Z" fill="white"/>
<path d="M24 9C24 9.55228 23.5523 10 23 10C22.4477 10 22 9.55228 22 9C22 8.44771 22.4477 8 23 8C23.5523 8 24 8.44771 24 9Z" fill="white"/>
<path d="M30 9C30 9.55228 29.5523 10 29 10C28.4477 10 28 9.55228 28 9C28 8.44771 28.4477 8 29 8C29.5523 8 30 8.44771 30 9Z" fill="white"/>
<path d="M78 1C78 1.55228 77.5523 2 77 2C76.4477 2 76 1.55228 76 1C76 0.447715 76.4477 0 77 0C77.5523 0 78 0.447715 78 1Z" fill="white"/>
<path d="M84 1C84 1.55228 83.5523 2 83 2C82.4477 2 82 1.55228 82 1C82 0.447715 82.4477 0 83 0C83.5523 0 84 0.447715 84 1Z" fill="white"/>
<path d="M80 3C80 3.55228 79.5523 4 79 4C78.4477 4 78 3.55228 78 3C78 2.44772 78.4477 2 79 2C79.5523 2 80 2.44772 80 3Z" fill="white"/>
<path d="M82 3C82 3.55228 81.5523 4 81 4C80.4477 4 80 3.55228 80 3C80 2.44772 80.4477 2 81 2C81.5523 2 82 2.44772 82 3Z" fill="white"/>
<path d="M82 7C82 7.55228 81.5523 8 81 8C80.4477 8 80 7.55228 80 7C80 6.44772 80.4477 6 81 6C81.5523 6 82 6.44772 82 7Z" fill="white"/>
<path d="M80 5C80 5.55228 79.5523 6 79 6C78.4477 6 78 5.55228 78 5C78 4.44772 78.4477 4 79 4C79.5523 4 80 4.44772 80 5Z" fill="white"/>
<path d="M80 7C80 7.55228 79.5523 8 79 8C78.4477 8 78 7.55228 78 7C78 6.44772 78.4477 6 79 6C79.5523 6 80 6.44772 80 7Z" fill="white"/>
<path d="M86 3C86 3.55228 85.5523 4 85 4C84.4477 4 84 3.55228 84 3C84 2.44772 84.4477 2 85 2C85.5523 2 86 2.44772 86 3Z" fill="white"/>
<path d="M86 5C86 5.55228 85.5523 6 85 6C84.4477 6 84 5.55228 84 5C84 4.44772 84.4477 4 85 4C85.5523 4 86 4.44772 86 5Z" fill="white"/>
<path d="M86 7C86 7.55228 85.5523 8 85 8C84.4477 8 84 7.55228 84 7C84 6.44772 84.4477 6 85 6C85.5523 6 86 6.44772 86 7Z" fill="white"/>
<path d="M76 3C76 3.55228 75.5523 4 75 4C74.4477 4 74 3.55228 74 3C74 2.44772 74.4477 2 75 2C75.5523 2 76 2.44772 76 3Z" fill="white"/>
<path d="M76 5C76 5.55228 75.5523 6 75 6C74.4477 6 74 5.55228 74 5C74 4.44772 74.4477 4 75 4C75.5523 4 76 4.44772 76 5Z" fill="white"/>
<path d="M76 7C76 7.55228 75.5523 8 75 8C74.4477 8 74 7.55228 74 7C74 6.44772 74.4477 6 75 6C75.5523 6 76 6.44772 76 7Z" fill="white"/>
<path d="M84 9C84 9.55228 83.5523 10 83 10C82.4477 10 82 9.55228 82 9C82 8.44771 82.4477 8 83 8C83.5523 8 84 8.44771 84 9Z" fill="white"/>
<path d="M78 9C78 9.55228 77.5523 10 77 10C76.4477 10 76 9.55228 76 9C76 8.44771 76.4477 8 77 8C77.5523 8 78 8.44771 78 9Z" fill="white"/>
<path d="M114 1C114 1.55228 113.552 2 113 2C112.448 2 112 1.55228 112 1C112 0.447715 112.448 0 113 0C113.552 0 114 0.447715 114 1Z" fill="white"/>
<path d="M100 1C100 1.55228 99.5523 2 99 2C98.4477 2 98 1.55228 98 1C98 0.447715 98.4477 0 99 0C99.5523 0 100 0.447715 100 1Z" fill="white"/>
<path d="M116 1C116 1.55228 115.552 2 115 2C114.448 2 114 1.55228 114 1C114 0.447715 114.448 0 115 0C115.552 0 116 0.447715 116 1Z" fill="white"/>
<path d="M102 3C102 3.55228 101.552 4 101 4C100.448 4 100 3.55228 100 3C100 2.44772 100.448 2 101 2C101.552 2 102 2.44772 102 3Z" fill="white"/>
<path d="M118 3C118 3.55228 117.552 4 117 4C116.448 4 116 3.55228 116 3C116 2.44772 116.448 2 117 2C117.552 2 118 2.44772 118 3Z" fill="white"/>
<path d="M108 9C108 9.55228 107.552 10 107 10C106.448 10 106 9.55228 106 9C106 8.44771 106.448 8 107 8C107.552 8 108 8.44771 108 9Z" fill="white"/>
<path d="M124 9C124 9.55228 123.552 10 123 10C122.448 10 122 9.55228 122 9C122 8.44771 122.448 8 123 8C123.552 8 124 8.44771 124 9Z" fill="white"/>
<path d="M132 9C132 9.55228 131.552 10 131 10C130.448 10 130 9.55228 130 9C130 8.44771 130.448 8 131 8C131.552 8 132 8.44771 132 9Z" fill="white"/>
<path d="M130 9C130 9.55228 129.552 10 129 10C128.448 10 128 9.55228 128 9C128 8.44771 128.448 8 129 8C129.552 8 130 8.44771 130 9Z" fill="white"/>
<path d="M134 9C134 9.55228 133.552 10 133 10C132.448 10 132 9.55228 132 9C132 8.44771 132.448 8 133 8C133.552 8 134 8.44771 134 9Z" fill="white"/>
<path d="M106 9C106 9.55228 105.552 10 105 10C104.448 10 104 9.55228 104 9C104 8.44771 104.448 8 105 8C105.552 8 106 8.44771 106 9Z" fill="white"/>
<path d="M126 3C126 3.55228 125.552 4 125 4C124.448 4 124 3.55228 124 3C124 2.44772 124.448 2 125 2C125.552 2 126 2.44772 126 3Z" fill="white"/>
<path d="M132 3C132 3.55228 131.552 4 131 4C130.448 4 130 3.55228 130 3C130 2.44772 130.448 2 131 2C131.552 2 132 2.44772 132 3Z" fill="white"/>
<path d="M106 3C106 3.55228 105.552 4 105 4C104.448 4 104 3.55228 104 3C104 2.44772 104.448 2 105 2C105.552 2 106 2.44772 106 3Z" fill="white"/>
<path d="M122 1C122 1.55228 121.552 2 121 2C120.448 2 120 1.55228 120 1C120 0.447715 120.448 0 121 0C121.552 0 122 0.447715 122 1Z" fill="white"/>
<path d="M130 1C130 1.55228 129.552 2 129 2C128.448 2 128 1.55228 128 1C128 0.447715 128.448 0 129 0C129.552 0 130 0.447715 130 1Z" fill="white"/>
<path d="M108 5C108 5.55228 107.552 6 107 6C106.448 6 106 5.55228 106 5C106 4.44772 106.448 4 107 4C107.552 4 108 4.44772 108 5Z" fill="white"/>
<path d="M124 5C124 5.55228 123.552 6 123 6C122.448 6 122 5.55228 122 5C122 4.44772 122.448 4 123 4C123.552 4 124 4.44772 124 5Z" fill="white"/>
<path d="M132 5C132 5.55228 131.552 6 131 6C130.448 6 130 5.55228 130 5C130 4.44772 130.448 4 131 4C131.552 4 132 4.44772 132 5Z" fill="white"/>
<path d="M110 7C110 7.55228 109.552 8 109 8C108.448 8 108 7.55228 108 7C108 6.44772 108.448 6 109 6C109.552 6 110 6.44772 110 7Z" fill="white"/>
<path d="M124 7C124 7.55228 123.552 8 123 8C122.448 8 122 7.55228 122 7C122 6.44772 122.448 6 123 6C123.552 6 124 6.44772 124 7Z" fill="white"/>
<path d="M132 7C132 7.55228 131.552 8 131 8C130.448 8 130 7.55228 130 7C130 6.44772 130.448 6 131 6C131.552 6 132 6.44772 132 7Z" fill="white"/>
<path d="M108 1C108 1.55228 107.552 2 107 2C106.448 2 106 1.55228 106 1C106 0.447715 106.448 0 107 0C107.552 0 108 0.447715 108 1Z" fill="white"/>
<path d="M106 1C106 1.55228 105.552 2 105 2C104.448 2 104 1.55228 104 1C104 0.447715 104.448 0 105 0C105.552 0 106 0.447715 106 1Z" fill="white"/>
<path d="M126 1C126 1.55228 125.552 2 125 2C124.448 2 124 1.55228 124 1C124 0.447715 124.448 0 125 0C125.552 0 126 0.447715 126 1Z" fill="white"/>
<path d="M110 1C110 1.55228 109.552 2 109 2C108.448 2 108 1.55228 108 1C108 0.447715 108.448 0 109 0C109.552 0 110 0.447715 110 1Z" fill="white"/>
<path d="M124 1C124 1.55228 123.552 2 123 2C122.448 2 122 1.55228 122 1C122 0.447715 122.448 0 123 0C123.552 0 124 0.447715 124 1Z" fill="white"/>
<path d="M132 1C132 1.55228 131.552 2 131 2C130.448 2 130 1.55228 130 1C130 0.447715 130.448 0 131 0C131.552 0 132 0.447715 132 1Z" fill="white"/>
<path d="M110 5C110 5.55228 109.552 6 109 6C108.448 6 108 5.55228 108 5C108 4.44772 108.448 4 109 4C109.552 4 110 4.44772 110 5Z" fill="white"/>
<path d="M98 3C98 3.55228 97.5523 4 97 4C96.4477 4 96 3.55228 96 3C96 2.44772 96.4477 2 97 2C97.5523 2 98 2.44772 98 3Z" fill="white"/>
<path d="M116 5C116 5.55228 115.552 6 115 6C114.448 6 114 5.55228 114 5C114 4.44772 114.448 4 115 4C115.552 4 116 4.44772 116 5Z" fill="white"/>
<path d="M102 5C102 5.55228 101.552 6 101 6C100.448 6 100 5.55228 100 5C100 4.44772 100.448 4 101 4C101.552 4 102 4.44772 102 5Z" fill="white"/>
<path d="M118 5C118 5.55228 117.552 6 117 6C116.448 6 116 5.55228 116 5C116 4.44772 116.448 4 117 4C117.552 4 118 4.44772 118 5Z" fill="white"/>
<path d="M98 5C98 5.55228 97.5523 6 97 6C96.4477 6 96 5.55228 96 5C96 4.44772 96.4477 4 97 4C97.5523 4 98 4.44772 98 5Z" fill="white"/>
<path d="M114 7C114 7.55228 113.552 8 113 8C112.448 8 112 7.55228 112 7C112 6.44772 112.448 6 113 6C113.552 6 114 6.44772 114 7Z" fill="white"/>
<path d="M98 7C98 7.55228 97.5523 8 97 8C96.4477 8 96 7.55228 96 7C96 6.44772 96.4477 6 97 6C97.5523 6 98 6.44772 98 7Z" fill="white"/>
<path d="M114 9C114 9.55228 113.552 10 113 10C112.448 10 112 9.55228 112 9C112 8.44771 112.448 8 113 8C113.552 8 114 8.44771 114 9Z" fill="white"/>
<path d="M100 9C100 9.55228 99.5523 10 99 10C98.4477 10 98 9.55228 98 9C98 8.44771 98.4477 8 99 8C99.5523 8 100 8.44771 100 9Z" fill="white"/>
<path d="M116 9C116 9.55228 115.552 10 115 10C114.448 10 114 9.55228 114 9C114 8.44771 114.448 8 115 8C115.552 8 116 8.44771 116 9Z" fill="white"/>
<path d="M102 7C102 7.55228 101.552 8 101 8C100.448 8 100 7.55228 100 7C100 6.44772 100.448 6 101 6C101.552 6 102 6.44772 102 7Z" fill="white"/>
<path d="M118 9C118 9.55228 117.552 10 117 10C116.448 10 116 9.55228 116 9C116 8.44771 116.448 8 117 8C117.552 8 118 8.44771 118 9Z" fill="white"/>
</svg>
